<svg baseProfile="tiny" version="1.2" xmlns="http://www.w3.org/2000/svg">
  <path d="m144 13-8-1-62 5-1 5 7 101 7 26 1 9 3 5 69-8 4-3 4-117-2-7-13-11-5-1Z" fill="none" stroke="#000" stroke-width="1.5"/>
  <path d="m139 13 12 5 14 12 2 6-4 114-4 4-66 8-4-5-1-9-7-26-7-101 5-4h14l13-2 6 1Z" fill="none" stroke="#000" stroke-width="1.5"/>
  <path d="m86 31-4 2-1 7 5 65-1 22 4 15-2-11 1-3 2 3v4l4 1 54-21 4-5 2-24-1-16-1 35-6 9-51 20-4-1 1-13h3l4-3 2-9-2-25-2-7 2 37-4 5-7 2-1 2-1-3 1-15-5-68 7-5Zm1 93v3Zm2 0Z" fill="none" stroke="#000" stroke-width="1.5"/>
  <path d="m158 27-11-8-46 3-15-1v4l2-1 6 10 1 21 2 2h24l-1 7h5l7-3-1-5 5-2h11l8-4-51 3-7 2-2-16 1-5 53-4Z" fill="none" stroke="#000" stroke-width="1.5"/>
  <path d="m121 61 3-4h5l2 2-7 4Zm-17-6h6Zm22-2 3 3-4-1Zm-9 1h4Zm13-1h5Zm12-1h5Zm11-25-5 2-52 4-6-9 13-2 42-2Z" fill="none" stroke="#000" stroke-width="1.5"/>
</svg>
