<svg xmlns="http://www.w3.org/2000/svg" width="960" height="960">
  <path style="fill:#ffffff;stroke:none" d="M257 282c-2.443 11.807-6.812 23.442-10.28 35-6.609 22.027-13.392 43.974-20 66-20.416 68.046-40.862 136.099-61.745 204-7.782 25.303-15.247 50.688-23 76-4.112 13.428-10.753 27.986-11.975 42h126c2.13-14.476 8.134-29.051 12.492-43 7.688-24.604 14.905-49.36 22.483-74 23.014-74.83 46.5-149.705 67.934-225 5.34-18.759 11.604-37.258 16.999-56 2.383-8.279 5.834-16.451 7.092-25zm183 0c-1.639 12.158-6.707 24.364-10.481 36-6.006 18.512-11.332 37.37-16.95 56-22.719 75.335-45.901 150.569-68.29 226-6.641 22.375-13.444 44.697-20.304 67-3.8 12.355-9.085 25.204-10.975 38h126c2.613-12.501 7.221-24.794 10.975-37a8599 8599 0 0 0 17.305-57c22.406-74.681 46.283-149.01 67.629-224 7.057-24.79 15.278-49.259 22.515-74 2.952-10.091 7.717-20.481 8.576-31zm56 423h126c12.121-45.344 27.227-90.118 40.975-135 16.415-53.587 31.834-107.499 48.533-161 7.683-24.616 14.937-49.355 22.517-74 5.39-17.527 11.843-35.14 15.975-53H634c-2.74 0-6.954-.73-9.298 1.028-2.481 1.861-3.027 6.202-3.893 8.972-2.179 6.969-4.183 13.991-6.233 21-7.62 26.05-15.651 52.043-23.601 78-20.09 65.599-39.71 131.358-59.696 197l-23 76c-4.144 13.611-9.094 27.108-12.279 41m271-323c-13.244 47.019-26.588 94.002-39.909 141l-12 42c-2.231 7.839-5.38 15.844-6.091 24h124c-1.196-8.872-4.779-17.497-7.495-26-3.73-11.674-7.292-23.371-11.15-35-10.78-32.49-20.441-65.39-30.86-98-4.942-15.47-12.325-31.896-14.495-48z"/>
</svg>
